<svg xmlns="http://www.w3.org/2000/svg" viewBox="0 0 1200 240"><defs><radialGradient id="glow"><stop stop-color="#44dfd2" stop-opacity=".36"/><stop offset="1" stop-color="#143e4b" stop-opacity="0"/></radialGradient></defs><rect width="1200" height="240" fill="#143e4b"/><ellipse cx="454" cy="40" rx="650" ry="260" fill="url(#glow)"/><ellipse cx="70" cy="110" rx="60" ry="22" transform="rotate(-35 70 110)" fill="#44dfd2" opacity=".19"/><ellipse cx="220" cy="140" rx="60" ry="22" transform="rotate(35 220 140)" fill="#44dfd2" opacity=".19"/><ellipse cx="370" cy="170" rx="60" ry="22" transform="rotate(-35 370 170)" fill="#44dfd2" opacity=".19"/><ellipse cx="520" cy="110" rx="60" ry="22" transform="rotate(35 520 110)" fill="#44dfd2" opacity=".19"/><ellipse cx="670" cy="140" rx="60" ry="22" transform="rotate(-35 670 140)" fill="#44dfd2" opacity=".19"/><ellipse cx="820" cy="170" rx="60" ry="22" transform="rotate(35 820 170)" fill="#44dfd2" opacity=".19"/><ellipse cx="970" cy="110" rx="60" ry="22" transform="rotate(-35 970 110)" fill="#44dfd2" opacity=".19"/><ellipse cx="1120" cy="140" rx="60" ry="22" transform="rotate(35 1120 140)" fill="#44dfd2" opacity=".19"/></svg>