<svg xmlns="http://www.w3.org/2000/svg" viewBox="0 0 1200 240"><defs><radialGradient id="glow"><stop stop-color="#f5cf73" stop-opacity=".36"/><stop offset="1" stop-color="#2b202a" stop-opacity="0"/></radialGradient></defs><rect width="1200" height="240" fill="#2b202a"/><ellipse cx="777" cy="40" rx="650" ry="260" fill="url(#glow)"/><path d="M-50 240 L70 30 L260 240 Z" fill="none" stroke="#f5cf73" stroke-width="2" opacity=".58"/><path d="M100 240 L220 60 L410 240 Z" fill="none" stroke="#f5cf73" stroke-width="2" opacity=".58"/><path d="M250 240 L370 90 L560 240 Z" fill="none" stroke="#f5cf73" stroke-width="2" opacity=".58"/><path d="M400 240 L520 30 L710 240 Z" fill="none" stroke="#f5cf73" stroke-width="2" opacity=".58"/><path d="M550 240 L670 60 L860 240 Z" fill="none" stroke="#f5cf73" stroke-width="2" opacity=".58"/><path d="M700 240 L820 90 L1010 240 Z" fill="none" stroke="#f5cf73" stroke-width="2" opacity=".58"/><path d="M850 240 L970 30 L1160 240 Z" fill="none" stroke="#f5cf73" stroke-width="2" opacity=".58"/><path d="M1000 240 L1120 60 L1310 240 Z" fill="none" stroke="#f5cf73" stroke-width="2" opacity=".58"/><rect x="12" y="12" width="1176" height="216" rx="14" fill="none" stroke="#f5cf73" opacity=".65"/><path d="M30 80V30H170 M1030 30H1170V80 M30 160V210H170 M1030 210H1170V160" fill="none" stroke="#f5cf73" stroke-width="4" opacity=".58"/></svg>