<svg xmlns="http://www.w3.org/2000/svg" viewBox="0 0 1200 240"><defs><radialGradient id="glow"><stop stop-color="#f5cf73" stop-opacity=".36"/><stop offset="1" stop-color="#2b202a" stop-opacity="0"/></radialGradient></defs><rect width="1200" height="240" fill="#2b202a"/><ellipse cx="811" cy="40" rx="650" ry="260" fill="url(#glow)"/><path d="M10 240 V110 Q70 -40 130 110 V240" fill="none" stroke="#f5cf73" stroke-width="3" opacity=".58"/><path d="M160 240 V110 Q220 -34 280 110 V240" fill="none" stroke="#f5cf73" stroke-width="3" opacity=".58"/><path d="M310 240 V110 Q370 -28 430 110 V240" fill="none" stroke="#f5cf73" stroke-width="3" opacity=".58"/><path d="M460 240 V110 Q520 -22 580 110 V240" fill="none" stroke="#f5cf73" stroke-width="3" opacity=".58"/><path d="M610 240 V110 Q670 -16 730 110 V240" fill="none" stroke="#f5cf73" stroke-width="3" opacity=".58"/><path d="M760 240 V110 Q820 -10 880 110 V240" fill="none" stroke="#f5cf73" stroke-width="3" opacity=".58"/><path d="M910 240 V110 Q970 -4 1030 110 V240" fill="none" stroke="#f5cf73" stroke-width="3" opacity=".58"/><path d="M1060 240 V110 Q1120 2 1180 110 V240" fill="none" stroke="#f5cf73" stroke-width="3" opacity=".58"/><rect x="12" y="12" width="1176" height="216" rx="14" fill="none" stroke="#f5cf73" opacity=".65"/><path d="M30 80V30H170 M1030 30H1170V80 M30 160V210H170 M1030 210H1170V160" fill="none" stroke="#f5cf73" stroke-width="4" opacity=".58"/></svg>