<svg xmlns="http://www.w3.org/2000/svg" viewBox="0 0 100 100"><defs><clipPath id="tile"><rect width="100" height="100" rx="24"/></clipPath><linearGradient id="paint0" x1="0" y1="0" x2=".8" y2="1"><stop stop-color="#b7a176"/><stop offset=".55" stop-color="#ab9260"/><stop offset="1" stop-color="#957f54"/></linearGradient><linearGradient id="paint1" x1="0" y1="0" x2=".8" y2="1"><stop stop-color="#c89d66"/><stop offset=".55" stop-color="#bf8d4d"/><stop offset="1" stop-color="#a67b43"/></linearGradient><linearGradient id="paint2" x1="0" y1="0" x2=".8" y2="1"><stop stop-color="#f0e9cf"/><stop offset=".55" stop-color="#eee5c7"/><stop offset="1" stop-color="#cfc7ad"/></linearGradient><linearGradient id="paint3" x1="0" y1="0" x2=".8" y2="1"><stop stop-color="#daad59"/><stop offset=".55" stop-color="#d4a03e"/><stop offset="1" stop-color="#b88b36"/></linearGradient><linearGradient id="paint4" x1="0" y1="0" x2=".8" y2="1"><stop stop-color="#fbf4dc"/><stop offset=".55" stop-color="#faf2d6"/><stop offset="1" stop-color="#dad3ba"/></linearGradient><linearGradient id="paint5" x1="0" y1="0" x2=".8" y2="1"><stop stop-color="#e2ba55"/><stop offset=".55" stop-color="#ddaf39"/><stop offset="1" stop-color="#c09832"/></linearGradient><radialGradient id="bg"><stop stop-color="#f4efe0"/><stop offset="1" stop-color="#d0cab3"/></radialGradient><linearGradient id="cloth"><stop stop-color="#000" stop-opacity=".15"/><stop offset=".25" stop-color="#fff" stop-opacity=".15"/><stop offset=".5" stop-color="#000" stop-opacity=".12"/><stop offset=".75" stop-color="#fff" stop-opacity=".18"/><stop offset="1" stop-color="#000" stop-opacity=".12"/></linearGradient><pattern id="weave" width="3" height="3" patternUnits="userSpaceOnUse"><path d="M0 0h3M0 0v3" stroke="#fff" stroke-opacity=".06" stroke-width=".5"/></pattern></defs><g clip-path="url(#tile)"><rect width="100" height="100" fill="url(#bg)"/><circle cx="50" cy="49" r="43" fill="none" stroke="#fff" stroke-opacity=".45"/><ellipse cx="50" cy="88" rx="31" ry="4" fill="#243c3c" opacity=".12"/><path d="M40 61Q30 31 10 20L14 45L9 63L27 55L21 77L41 67M60 61Q70 31 90 20L86 45L91 63L73 55L79 77L59 67" fill="url(#paint0)" stroke="#473c35" stroke-width="0.9" stroke-linejoin="round"/><path d="M39 61L12 23l15 32m34 6 27-38-15 32M36 60L15 44m49 16 21-16" fill="none" stroke="#6b7657" stroke-width="1" stroke-linecap="round" stroke-linejoin="round"/><path d="M32 87L34 65L44 54L41 43L35 20L50 31Q63 26 70 34L78 40L65 50L62 61L68 72L65 87Z" fill="url(#paint1)" stroke="#473c35" stroke-width="0.9" stroke-linejoin="round"/><path d="M44 57L40 43L35 20L50 31Q63 26 70 34L72 44L63 53L60 64L54 60L50 65Z" fill="url(#paint2)" stroke="#473c35" stroke-width="0.9" stroke-linejoin="round"/><path d="M65 38Q83 34 87 44L80 52L80 44L64 45Z" fill="url(#paint3)" stroke="#473c35" stroke-width="0.9" stroke-linejoin="round"/><ellipse cx="59" cy="37" rx="4.2" ry="2.7" fill="url(#paint4)" stroke="#302d29" stroke-width="1"/><circle cx="59" cy="37" r="2.4000000000000004" fill="url(#paint5)"/><ellipse cx="59" cy="37" rx="0.9180000000000001" ry="2.16" fill="#202c2c"/><circle cx="58.4" cy="36.2" r=".8" fill="white"/><path d="M43 46l7 7m-6-1 7 6m-5-1 7 6M21 38l17 22m-20-12 18 17M79 38L65 58m17-10-16 17M40 72v12m18-12 2 12" fill="none" stroke="#7f633d" stroke-width="1.2" stroke-linecap="round" stroke-linejoin="round"/><rect width="100" height="100" fill="url(#weave)" pointer-events="none"/><rect x="1" y="1" width="98" height="98" rx="23" fill="none" stroke="#fff" stroke-opacity=".45"/></g></svg>